PathFileType	4	(X/Y/Z)	C:/Users/opensim2020/Desktop/walking_exp_matlab/subject02_walking07_straight_02.trc	
DataRate	CameraRate	NumFrames	NumMarkers	Units	OrigDataRate	OrigDataStartFrame	OrigNumFrames	
100.00	100.00	4	50	mm	100.00	1409	210	
Frame#	Time	LFHD			RFHD			LBHD			RBHD			C7			T10			CLAV			STRN			RBAK			LSHO			LUPA			LELB			LFRM			LWRA			LWRB			LFIN			RSHO			RUPA			RELB			RFRM			RWRA			RWRB			RFIN			LASI			RASI			LPSI			RPSI			LTHI			LKNE			LTIB			LANK			LHEE			LTOE			RTHI			RKNE			RTIB			RANK			RHEE			RTOE			*39			*40			*41			*42			*43			*44			*45			*46			*47			*48			*49			
		X1	Y1	Z1	X2	Y2	Z2	X3	Y3	Z3	X4	Y4	Z4	X5	Y5	Z5	X6	Y6	Z6	X7	Y7	Z7	X8	Y8	Z8	X9	Y9	Z9	X10	Y10	Z10	X11	Y11	Z11	X12	Y12	Z12	X13	Y13	Z13	X14	Y14	Z14	X15	Y15	Z15	X16	Y16	Z16	X17	Y17	Z17	X18	Y18	Z18	X19	Y19	Z19	X20	Y20	Z20	X21	Y21	Z21	X22	Y22	Z22	X23	Y23	Z23	X24	Y24	Z24	X25	Y25	Z25	X26	Y26	Z26	X27	Y27	Z27	X28	Y28	Z28	X29	Y29	Z29	X30	Y30	Z30	X31	Y31	Z31	X32	Y32	Z32	X33	Y33	Z33	X34	Y34	Z34	X35	Y35	Z35	X36	Y36	Z36	X37	Y37	Z37	X38	Y38	Z38	X39	Y39	Z39	X40	Y40	Z40	X41	Y41	Z41	X42	Y42	Z42	X43	Y43	Z43	X44	Y44	Z44	X45	Y45	Z45	X46	Y46	Z46	X47	Y47	Z47	X48	Y48	Z48	X49	Y49	Z49	X50	Y50	Z50	

79	0.780	-925.43921	39.16963	1717.85730	-1067.29614	53.89347	1699.18787	-903.34216	170.21005	1644.62915	-1043.50330	196.13222	1624.66772	-968.51605	230.58588	1501.32080	-984.17139	277.70383	1224.56604	-971.14655	90.22431	1434.98633	-983.91388	35.51183	1264.15515	-1028.73560	290.54453	1324.71936	-796.68634	139.49042	1477.01123	-709.54663	93.60664	1286.67236	-690.54443	37.36702	1155.00330	-696.41125	-51.68206	1054.32788	-750.23901	-164.10402	995.50897	-713.99121	-133.92598	964.99878	-716.25372	-191.82643	933.79211	-1161.50525	172.80434	1468.31946	-1237.39380	232.49548	1283.78369	-1258.60828	237.11716	1139.16406	-1288.93591	228.34448	1021.74176	-1287.76697	193.24243	889.22131	-1307.63208	246.19585	893.69824	-1319.79297	220.28438	826.05927	-848.51001	61.33813	959.70203	-1104.82202	36.16655	958.69965	-951.55432	261.66803	1008.04211	-1064.34802	257.68216	1007.56879	-811.89209	196.40408	661.93683	-846.30469	275.13687	474.48706	-851.16699	395.93698	320.86652	-887.15228	469.44614	105.50715	-938.47723	510.76675	90.71922	-883.26758	326.05518	33.84304	-1189.66003	38.41509	661.61786	-1148.96545	-17.55846	462.16882	-1153.69128	-27.62197	274.03070	-1124.77832	-68.93748	86.43583	-1066.16028	-53.22308	32.83810	-1145.49561	-229.37886	57.07992	-1004.93231	148.80659	1784.73291	-3357.26025	2845.92700	1034.06921																											 
80	0.790	-927.39642	29.97871	1717.51855	-1069.60327	44.04597	1698.84534	-905.72766	160.18698	1644.13818	-1046.28699	186.27609	1624.20862	-970.89386	220.81992	1500.02991	-986.87781	266.87378	1223.76904	-973.24915	79.96880	1434.23694	-985.99146	24.65813	1263.90771	-1030.73743	279.65451	1323.54980	-798.74023	129.90004	1475.84131	-711.66565	86.09978	1284.54333	-692.71295	31.77368	1152.26514	-698.29565	-56.18911	1049.82507	-751.68494	-167.29527	989.20239	-715.50909	-136.46484	959.23969	-717.73358	-193.39746	926.91492	-1163.91980	162.53058	1467.27356	-1239.86182	221.74773	1282.48694	-1261.18628	225.94571	1137.79590	-1291.50793	216.69772	1020.40076	-1290.41260	181.01540	888.06555	-1310.22583	233.92177	892.24829	-1322.58655	207.72221	824.95416	-850.90466	49.50268	958.56696	-1107.25134	24.35952	958.53790	-954.67303	250.09650	1006.59277	-1067.37573	245.58517	1006.51709	-813.54077	186.08046	661.53400	-847.09937	265.25607	474.63773	-851.68201	389.12222	323.57401	-886.32825	467.15097	109.70138	-937.61462	508.48892	96.13336	-883.00922	325.76572	33.81239	-1191.99927	26.08557	662.03619	-1151.70789	-27.94574	461.96396	-1154.42932	-36.53905	273.83917	-1127.38977	-75.74177	86.56630	-1068.69629	-56.17389	34.75751	-1145.60486	-235.29430	50.83828	-1007.32520	139.22614	1784.01929	-3360.17188	2845.05835	1034.20471																											 
81	0.800	-929.99457	20.00923	1717.54858	-1072.13367	34.08020	1698.82227	-908.01575	150.35123	1644.24695	-1048.06763	176.06674	1623.65051	-973.32349	210.99417	1499.32874	-989.30536	256.00064	1223.29736	-975.38293	69.68246	1434.14172	-988.11884	13.94860	1264.04077	-1033.24255	270.00641	1323.11841	-800.56976	120.44859	1475.00488	-713.96045	78.49017	1282.66101	-695.18463	26.27862	1149.53137	-700.19678	-59.51346	1045.61829	-753.11041	-170.01414	982.76770	-717.08533	-138.69374	953.38428	-719.11151	-194.58266	920.13214	-1166.38831	152.08513	1466.23303	-1242.35742	210.72763	1281.30322	-1263.80627	214.44269	1136.57727	-1294.10803	204.74467	1019.24176	-1293.09302	168.42401	887.20789	-1312.77441	221.48354	891.15033	-1325.29639	194.73824	823.91785	-853.71143	37.23747	957.61737	-1109.80029	12.69027	958.61383	-957.74933	238.51949	1005.52252	-1070.70215	233.33670	1006.30597	-815.31451	175.09966	661.43451	-847.75012	254.59033	475.00156	-852.16949	381.60867	326.75049	-885.39240	464.24768	114.44028	-936.71820	505.29065	102.01536	-882.79883	325.42346	33.73129	-1194.85645	15.00911	663.07556	-1154.32813	-40.01915	463.65302	-1159.20166	-46.80430	275.56659	-1129.34839	-81.53735	86.48853	-1070.15540	-58.49497	35.74028	-1145.99158	-239.16344	47.54398	-1009.53760	129.54396	1783.74536	-3360.30249	2845.19995	1033.87732																											 
82	0.810	-932.29163	10.18909	1718.37622	-1074.41211	24.22743	1699.20581	-910.50787	140.41841	1644.32642	-1051.19739	166.56970	1624.23657	-975.71844	200.79401	1499.45618	-991.43665	245.20854	1223.14355	-977.51855	59.55281	1434.46631	-990.35034	3.23627	1264.56226	-1035.66357	259.33813	1323.12952	-802.34406	111.06666	1474.62036	-716.45117	71.03027	1280.98462	-697.83752	20.94557	1147.03015	-702.51825	-63.16579	1041.30737	-754.52032	-172.02432	976.07117	-718.58057	-139.55913	947.40845	-720.46259	-195.72624	912.98981	-1168.94946	141.75967	1465.82043	-1244.91235	199.35387	1280.43665	-1266.46155	202.57936	1135.70386	-1296.68323	192.40689	1018.36420	-1295.68457	155.50887	886.62854	-1315.10437	208.64459	890.20038	-1328.12061	181.48622	823.58917	-856.34784	25.27780	956.81641	-1112.51245	1.02713	959.14594	-960.58533	226.59166	1004.87250	-1074.03015	221.09512	1007.29596	-817.24701	163.59064	661.46899	-848.26208	242.87819	475.53989	-852.51404	373.16312	330.33591	-884.31940	460.75919	119.78552	-935.78345	501.63382	108.94579	-882.48157	324.98187	33.72843	-1197.89783	4.78017	664.49884	-1155.96765	-53.42966	466.18121	-1162.54590	-58.14011	278.02014	-1129.77344	-84.20278	86.95470	-1070.43359	-59.07649	36.33951	-1146.57776	-239.66197	44.25610	-1012.25433	119.66283	1784.34766	-3357.39429	2845.94824	1034.15063																											 
